<svg width="450" height="415" viewBox="0 0 450 415" fill="none" xmlns="http://www.w3.org/2000/svg">
<path d="M231.762 26.001C248.763 27.1885 265.653 27.691 282.608 28.7555C283.118 32.6095 285.478 41.1375 286.47 45.145L293.67 74.2693L313.34 154.031L319.66 179.597C321.018 185.029 322.825 191.703 323.798 197.128C325.34 194.785 326.795 192.385 328.158 189.934C327.475 187.938 327.01 185.461 326.503 183.378L323.925 172.873L317.09 144.659L306.09 99.58C304.793 94.1393 303.015 87.7185 301.96 82.3698C312.16 81.5805 322.13 80.2915 332.295 79.431C334.63 82.5298 338.138 86.04 340.76 89.3855C346.723 88.7075 352.575 87.8008 358.493 87.109C361.593 90.0633 365.64 94.9548 368.618 98.1765C376.645 106.861 384.503 116.306 392.673 124.816C386.055 136.19 378.883 147.622 372.075 158.909L327.35 232.983C319.47 245.979 310.55 260.09 303.083 273.188C305.968 272.41 307.953 272.36 310.858 271.092C312.945 268.075 315.325 263.92 317.28 260.698L329.005 241.375L368.405 176.638C370.298 178.388 373.498 180.843 375.58 182.539C381.095 186.962 386.57 191.433 392.005 195.954C391.96 199.277 391.328 205.606 390.955 208.997C395.005 212.183 401.22 217.245 405.343 220.024C405.145 222.561 405.01 225.168 404.913 227.713C404.38 241.919 402.755 256.415 402.72 270.617C393.825 273.242 383.488 275.45 374.32 277.74L314.885 292.42L260.275 305.867C252.103 307.878 242.183 310.66 234.122 312.3L241.129 316.48C244.076 315.983 248.52 314.737 251.54 313.992L271.745 309.043L348.845 290.297C349.76 300.457 351.08 310.558 351.89 320.733C349.043 322.845 344.345 327.16 341.718 329.552C342.863 335.247 343.213 341.317 344.383 346.895C332.213 358.348 318.558 369.432 306.493 381.098L207.497 321.25C191.206 311.453 174.378 300.785 157.967 291.35C158.695 293.705 159.263 296.497 159.994 298.995C160.863 299.67 161.799 300.263 162.732 300.842C170.926 305.955 179.302 310.77 187.499 315.88C201.328 324.41 215.204 332.865 229.126 341.245C236.732 345.883 246.988 352.573 254.683 356.728L235.229 380.547C231.697 379.982 226.192 379.768 222.415 379.445C219.959 381.872 213.978 390.13 211.418 393.337C210.289 393.663 202.642 393.117 200.992 393.057C187.507 392.562 173.9 391.392 160.436 390.902C159.816 386.905 157.551 378.905 156.486 374.587L147.793 339.425L128.72 261.97C125.49 248.947 122.383 235.469 118.993 222.553C117.536 224.922 116.118 227.314 114.74 229.73C115.692 232.428 116.915 238.08 117.629 241.005L123.125 263.688C129.107 287.97 135.351 312.815 141.012 337.14C137.498 337.288 132.275 338.117 128.537 338.462C122.81 338.995 116.293 339.455 110.672 340.328C108.952 337.923 103.937 332.473 101.84 330.128C96.0993 331.41 89.3588 331.395 84.2408 332.555C81.1363 328.647 75.906 323.188 72.3948 319.297L50.319 294.765C52.256 291.05 56.4788 284.54 58.7655 280.75L76.7338 251.008L139.913 146.433C137.278 147.047 134.652 147.695 132.034 148.377C130.597 151.263 127.133 156.586 125.317 159.578L112.391 180.86L74.6198 242.936C67.0798 237.315 58.5168 229.903 51.0565 223.885C50.9103 221.047 51.6163 213.44 52.0005 210.61C47.911 207.92 41.989 202.834 37.7958 199.74C37.5858 195.607 38.3013 186.777 38.5533 182.477C39.3048 171.257 39.8868 160.028 40.2993 148.791C52.7208 146.032 65.4973 142.648 77.9078 139.627L164.718 118.23C179.051 114.693 194.564 110.481 208.896 107.495C206.534 106.011 204.144 104.572 201.728 103.177L130.062 120.611L107.905 126.024C104.016 126.982 97.8315 128.698 94.068 129.152C93.7193 120.092 91.7475 108.8 91.1755 99.0608C94.0963 96.2268 98.0058 93.0228 101.133 90.3175C100.625 85.4758 99.4953 77.5115 98.6495 72.7888C111.054 61.444 124.35 50.12 136.506 38.632L232.433 96.608L262.668 114.878C269.865 119.261 277.67 124.196 284.97 128.283C284.06 125.213 283.955 123.442 282.575 120.266C281.268 119.266 276.23 116.369 274.538 115.341L256.31 104.293L188.38 62.8418C194.377 54.9795 201.546 47.195 207.45 39.279C211.309 39.883 216.617 39.8373 220.753 40.2638C223.991 35.736 228.317 30.4515 231.762 26.001Z" fill="#C9E2C9"/>
<path d="M129.569 204.915C130.04 205.41 132.81 217.499 133.235 219.211L144.309 264.328L171.673 375.987C185.777 376.91 199.838 378.207 213.974 378.807L208.086 386.418C204.48 386.548 196.961 385.84 192.981 385.685C184.018 385.34 174.848 384.98 165.917 384.305C161.408 364.012 155.649 342.415 150.65 322.115L124.023 214.206C125.865 211.606 128.038 207.74 129.569 204.915Z" fill="#2E5C40"/>
<path d="M390.513 217.65C392.443 218.724 396.42 222.001 398.147 223.457C397.415 230.749 397.45 239.243 397.01 246.648C396.653 252.693 396.057 259.393 395.957 265.353L276.315 294.763L244.355 302.715C238.618 304.155 232.721 305.532 226.967 306.962C226.237 307.145 225.729 307.07 225.074 306.758C222.623 305.248 218.808 302.755 216.335 301.57L333.897 272.8C351.592 268.425 370.092 263.585 387.83 259.655C387.845 257.185 388.062 254.445 388.207 251.96C388.88 240.491 389.903 229.13 390.513 217.65Z" fill="#2E5C40"/>
<path d="M216.428 112.552C217.489 112.442 224.901 117.174 226.739 118.06C221.543 119.028 214.003 121.15 208.657 122.459L170.336 131.866L55.0333 160.176C54.95 172.526 53.2695 186.637 52.5295 199.188C52.521 199.918 52.6273 201.412 52.136 201.865C49.5483 200.038 47.2098 198.212 44.7155 196.255C45.2483 193.476 45.4633 183.649 45.603 180.388C45.9723 171.636 46.4698 162.891 47.0955 154.154C54.1338 152.894 63.4855 150.27 70.569 148.506L108.288 139.219L216.428 112.552Z" fill="#2E5C40"/>
<path d="M234.96 33.1823C237.962 33.031 244.059 33.5848 247.285 33.7358C257.255 34.2023 267.15 35.155 277.15 35.288C277.39 37.6243 278.487 41.6938 279.08 44.0743L282.582 58.136L293.842 103.737L310.722 172.187L315.995 193.719C316.877 197.271 317.89 201.825 318.99 205.241C317.125 208.298 314.935 211.635 313.375 214.801C312.542 213.742 274.647 57.7855 271.267 43.59C263.637 42.92 255.945 42.601 248.297 42.121L229.042 40.7268C230.799 38.7833 233.291 35.3453 234.96 33.1823Z" fill="#2E5C40"/>
<path d="M153.096 271.408C155.607 272.495 161.297 276.2 163.786 277.735L179.342 287.12L237.547 322.422L281.828 349.198L295.74 357.605C298.167 359.078 301.542 360.978 303.707 362.64C314.542 353.458 325.082 343.705 335.962 334.608C335.985 337.963 336.782 341.295 336.75 344.397C335.31 345.837 333.348 347.557 331.788 348.867C322.893 356.35 314.458 365.115 305.448 372.408C300.29 368.895 292.84 364.695 287.353 361.392L255.193 341.98L155.747 281.82C154.919 278.335 154.035 274.863 153.096 271.408Z" fill="#2E5C40"/>
<path d="M137.439 47.1862C139.333 48.6597 146.238 52.6033 148.593 54.0303L175.108 70.0195L251.495 116.233C263.085 123.239 275.812 130.55 287.09 137.808L289.94 148.367C286.16 146.455 280.41 142.738 276.612 140.433L252.755 125.973L182.625 83.4408L156.282 67.499C150.763 64.1665 144.483 60.5633 139.157 57.025C128.712 66.2423 117.249 75.75 107.127 85.1687C106.891 81.9032 106.454 78.5945 106.048 75.3455C116.544 66.1797 127.049 56.509 137.439 47.1862Z" fill="#2E5C40"/>
<path d="M159.506 141.523L159.83 141.704C158.617 144.405 153.725 151.905 151.993 154.767L134.828 183.141L91.1737 255.188C83.87 267.252 75.7307 280.042 68.8115 292.217C77.7825 302.822 87.3602 313.515 96.5245 323.992C93.461 324.382 90.049 324.89 86.9972 325.06C85.8207 324.16 79.4685 316.852 77.9437 315.145L58.863 294.015C64.6585 284.01 71.1475 273.655 77.1617 263.733L107.843 212.996L134.099 169.594C139.201 161.135 144.347 152.3 149.634 143.985C152.678 143.209 156.63 142.523 159.506 141.523Z" fill="#2E5C40"/>
<path d="M354.378 94.5775C354.6 94.5315 355.71 94.349 355.867 94.5188C365.352 104.828 374.742 115.305 384.085 125.743C380.325 132.445 375.25 140.299 371.195 146.995L346.475 187.856L293.578 275.298C291.403 276.258 288.233 276.963 285.875 277.54L282.897 278.143C288.322 269.42 293.58 260.49 298.925 251.708L341.595 181.299L362.737 146.427C366.192 140.734 371.137 133.069 374.155 127.35L346.355 95.5888C349.028 95.356 351.72 94.9463 354.378 94.5775Z" fill="#2E5C40"/>
<path d="M224.183 47.234C225.754 47.626 235.168 48.054 237.418 48.182C246.731 48.7128 256.4 49.7548 265.68 50.0525C269.745 65.6988 273.205 81.7243 277.407 97.3503L271.637 93.8793L231.091 69.4373C225.593 66.1178 219.874 62.846 214.474 59.4133C216.901 57.1283 221.462 50.3355 224.183 47.234Z" fill="#2E5C40"/>
<path d="M337.237 96.8683C337.542 96.7705 337.397 96.7915 337.77 96.803C338.81 96.835 362.595 124.77 365.705 128.18C363.422 131.615 360.822 136.163 358.645 139.753L344.628 162.891C343.398 165.067 341.83 167.5 340.51 169.657C338.938 164.186 337.447 157.323 336.06 151.705L327.557 117.562C326.272 112.401 324.4 103.35 322.767 98.6273C327.61 98.2285 332.377 97.1153 337.237 96.8683Z" fill="#2E5C40"/>
<path d="M102.374 250.188C103.043 250.938 117.861 313.215 120.11 321.068C114.96 321.623 109.84 322.375 104.698 322.915L100.125 317.647C94.888 311.255 88.974 305.133 83.6648 298.765C81.8095 296.54 79.299 293.478 77.2105 291.54C79.2988 288.555 82.0363 283.51 84.0863 280.247C90.2895 270.38 96.1065 259.995 102.374 250.188Z" fill="#2E5C40"/>
<path d="M139.712 65.637C141.11 66.2085 150.262 71.9875 152.145 73.1275L181.484 90.804C168.878 93.5525 154.947 97.3772 142.298 100.473L110.172 108.496C109.622 103.555 109.108 98.0025 108.367 93.136L128.778 75.286C132.291 72.2172 136.356 68.8235 139.712 65.637Z" fill="#2E5C40"/>
<path d="M165.797 322.438L212.753 350.75C217.805 353.733 223.307 357.365 228.437 360.09C226.814 361.937 224.724 364.858 223.19 366.875C221.769 368.68 220.364 370.498 218.975 372.325C208.602 371.845 198.15 370.67 187.749 370.302C184.313 370.182 180.576 369.94 177.167 369.54C176.634 365.855 174.688 359.375 173.807 355.51C171.327 344.63 168.013 333.315 165.797 322.438Z" fill="#2E5C40"/>
<path d="M332.497 311.318C333.032 311.875 334.312 324.165 334.622 326.26C332.315 328.823 326.485 333.643 323.745 336.033L302.995 354.07C300.195 352.055 295.652 349.46 292.612 347.65C287.937 344.86 283.278 342.043 278.635 339.198C274.353 336.548 265.793 331.045 261.478 329.038C270.208 326.538 280.165 324.255 289.057 322.057L332.497 311.318Z" fill="#2E5C40"/>
<path d="M108.291 154.018L108.586 154.38C104.427 161.869 99.3857 169.807 94.943 177.209L71.0885 216.745C69.5525 215.331 66.4877 213.141 64.7265 211.811C62.7767 210.324 60.9227 208.924 59.0612 207.325C59.0042 203.963 59.6247 199.227 59.769 195.727C60.1765 185.829 61.39 175.414 61.7582 165.587C66.1327 164.66 71.1047 163.308 75.5217 162.231C83.3945 160.389 91.238 158.424 99.05 156.338C102.125 155.508 105.405 155.264 108.291 154.018Z" fill="#2E5C40"/>
<path d="M371.793 202.895C375.888 206.043 379.952 209.224 383.992 212.44C382.927 222.746 382.74 233.285 381.927 243.622C381.657 247.055 381.29 250.585 381.235 254.023C368.952 257.113 356.65 260.135 344.335 263.09C340.885 264.012 337.41 264.848 333.918 265.595C335.638 263.155 337.555 259.795 339.13 257.198L347.688 243.016L371.793 202.895Z" fill="#2E5C40"/>
<path d="M210.969 46.1868C212.636 46.6068 213.981 46.6323 215.68 46.7278C211.922 51.6668 208.122 56.574 204.282 61.4493C207.495 62.9583 213.898 67.1198 217.316 69.1768L243.889 85.202L266.892 99.0498C270.252 101.066 277 104.89 279.828 107.122C280.045 108.352 280.295 108.893 280.383 110.25L280.147 110.485L279.615 110.266C273.075 106.763 263.94 100.865 257.522 96.9168L222.873 75.878C215.204 71.1828 206.343 65.4115 198.576 61.1368C202.561 56.507 206.948 50.4493 210.969 46.1868Z" fill="#2E5C40"/>
<path d="M162.478 308.9C164.177 309.61 169.101 312.75 170.811 313.797L188.202 324.473C206.449 335.555 226.392 347.118 244.207 358.573C240.386 363.345 236.539 368.098 232.665 372.828C231.591 373.353 228.775 373.02 227.285 372.99C230.629 368.112 235.354 363.025 238.489 358.195C221.431 348.265 203.912 337.393 186.979 327.165L172.019 318.182C169.408 316.615 165.362 314.363 163.128 312.515C162.868 311.48 162.66 309.992 162.478 308.9Z" fill="#2E5C40"/>
<path d="M342.385 299.053C342.75 299.005 342.567 299.01 342.985 299.235C343.615 305.09 344.07 311.77 344.617 317.74C343.705 318.79 341.985 320.223 340.897 321.188C339.977 314.695 339.377 309.282 338.675 302.8C330.502 304.365 320.248 307.24 312.04 309.278L266.797 320.453C262.817 321.438 257.257 322.643 253.525 323.963C251.85 323.08 251.18 322.582 249.658 321.425C252.125 320.997 255.92 319.965 258.467 319.358L276.378 315.038C298.01 309.79 320.725 303.83 342.385 299.053Z" fill="#2E5C40"/>
<path d="M187.936 96.329C190.513 95.828 191.527 96.8052 193.747 98.187C188.517 99.1805 182.744 100.715 177.536 101.996L153.995 107.738C136.128 112.101 117.82 116.267 100.06 120.823C99.646 116.437 99.273 112.046 98.9415 107.653C98.7257 105.78 98.4992 103.908 98.262 102.038C99.6317 100.702 100.588 99.821 102.081 98.6325C102.961 104.71 103.714 110.805 104.341 116.914C110.799 115.691 120.101 113.091 126.7 111.455L166.037 101.733C170.253 100.671 174.469 99.6505 178.686 98.5992C181.752 97.8347 184.823 96.7823 187.936 96.329Z" fill="#2E5C40"/>
<path d="M327.427 86.8565C330.25 86.541 331.1 88.56 332.737 90.622C326.535 91.2978 320.415 91.8875 314.253 92.8873C318.738 108.737 322.532 126.175 326.587 142.242L332.06 164.13C333.16 168.498 334.275 173.008 335.212 177.428C335.345 178.042 335.158 178.53 334.91 179.095C334.35 180.05 333.795 181.007 333.245 181.968C331.017 173.594 328.822 163.863 326.772 155.374L310.503 88.545C315.868 87.8427 322.007 87.339 327.427 86.8565Z" fill="#2E5C40"/>
<path d="M109.415 238.142C110.394 238.971 111.668 245.717 112.093 247.484L116.165 264.305L132.464 331.258C126.532 331.59 120.646 332.382 114.744 332.985C114.19 333.042 113.825 332.93 113.351 332.672C112.058 331.397 111.423 330.63 110.296 329.193C116.265 328.58 122.647 327.575 128.663 326.81C122.55 303.737 117.293 280.328 111.346 257.203C110.045 252.143 109.001 246.503 107.345 241.588C108.439 240.156 108.65 239.78 109.415 238.142Z" fill="#2E5C40"/>
<path d="M370.17 187.094C371.455 187.868 373.772 189.898 374.99 190.882C378.33 193.579 381.518 196.454 385.005 198.974C385.023 200.551 384.813 202.557 384.69 204.161C380.04 200.876 374.535 196.294 369.807 192.716C366.635 198.74 360.843 207.755 357.22 213.766L332.58 254.625C331.06 257.132 325.733 266.345 324.358 267.938L320.315 269.038C321.785 266.81 323.385 263.905 324.835 261.535L336.203 242.902L370.17 187.094Z" fill="#2E5C40"/>
<path d="M121.866 150.817L122.24 150.905C122.261 151.627 120.48 154.152 119.995 154.953C116.853 160.2 113.68 165.43 110.474 170.639L72.7585 232.648C68.479 228.916 63.5363 225.213 59.125 221.525C57.2488 219.991 58.1013 217.914 58.2428 215.59C61.792 217.854 69.876 224.138 72.874 226.997C74.525 224.721 76.2955 221.627 77.7738 219.19C80.7923 214.207 83.7758 209.202 86.7245 204.178L107.924 169.117C111.064 163.882 114.197 158.437 117.5 153.305C118.824 151.248 119.588 151.184 121.866 150.817Z" fill="#2E5C40"/>
</svg>
